<mxfile host="app.diagrams.net" modified="2024-04-26T21:51:57.988Z" agent="Mozilla/5.0 (Windows NT 10.0; Win64; x64) AppleWebKit/537.36 (KHTML, like Gecko) Chrome/121.0.0.0 Safari/537.36 OPR/107.0.0.0" etag="lB2nWEM93-wV83Tik6lt" version="24.3.1" type="github">
  <diagram id="R2lEEEUBdFMjLlhIrx00" name="Page-1">
    <mxGraphModel dx="1568" dy="771" grid="1" gridSize="10" guides="1" tooltips="1" connect="1" arrows="1" fold="1" page="1" pageScale="1" pageWidth="850" pageHeight="1100" math="0" shadow="0" extFonts="Permanent Marker^https://fonts.googleapis.com/css?family=Permanent+Marker">
      <root>
        <mxCell id="0" />
        <mxCell id="1" parent="0" />
        <mxCell id="gZ1vzj1ZjjKUgdzOVnLU-6" style="edgeStyle=orthogonalEdgeStyle;rounded=0;orthogonalLoop=1;jettySize=auto;html=1;exitX=0.167;exitY=1.001;exitDx=0;exitDy=0;entryX=0;entryY=0.5;entryDx=0;entryDy=0;exitPerimeter=0;" edge="1" parent="1" source="gZ1vzj1ZjjKUgdzOVnLU-2" target="gZ1vzj1ZjjKUgdzOVnLU-5">
          <mxGeometry relative="1" as="geometry">
            <Array as="points">
              <mxPoint x="60" y="440" />
            </Array>
          </mxGeometry>
        </mxCell>
        <mxCell id="gZ1vzj1ZjjKUgdzOVnLU-7" style="edgeStyle=orthogonalEdgeStyle;rounded=0;orthogonalLoop=1;jettySize=auto;html=1;entryX=0;entryY=0.5;entryDx=0;entryDy=0;" edge="1" parent="1" target="gZ1vzj1ZjjKUgdzOVnLU-4">
          <mxGeometry relative="1" as="geometry">
            <mxPoint x="60" y="360" as="sourcePoint" />
            <Array as="points">
              <mxPoint x="60" y="360" />
              <mxPoint x="60" y="390" />
            </Array>
          </mxGeometry>
        </mxCell>
        <mxCell id="gZ1vzj1ZjjKUgdzOVnLU-24" style="edgeStyle=orthogonalEdgeStyle;rounded=0;orthogonalLoop=1;jettySize=auto;html=1;exitX=0.167;exitY=1.001;exitDx=0;exitDy=0;entryX=0;entryY=0.5;entryDx=0;entryDy=0;exitPerimeter=0;" edge="1" parent="1" source="gZ1vzj1ZjjKUgdzOVnLU-2" target="gZ1vzj1ZjjKUgdzOVnLU-23">
          <mxGeometry relative="1" as="geometry">
            <Array as="points">
              <mxPoint x="60" y="490" />
            </Array>
          </mxGeometry>
        </mxCell>
        <mxCell id="gZ1vzj1ZjjKUgdzOVnLU-2" value="Tutorial" style="whiteSpace=wrap;html=1;align=center;" vertex="1" parent="1">
          <mxGeometry x="40" y="320" width="120" height="40" as="geometry" />
        </mxCell>
        <mxCell id="gZ1vzj1ZjjKUgdzOVnLU-4" value="id" style="ellipse;whiteSpace=wrap;html=1;align=center;fontStyle=4;" vertex="1" parent="1">
          <mxGeometry x="80" y="370" width="80" height="40" as="geometry" />
        </mxCell>
        <mxCell id="gZ1vzj1ZjjKUgdzOVnLU-5" value="day" style="ellipse;whiteSpace=wrap;html=1;align=center;" vertex="1" parent="1">
          <mxGeometry x="80" y="420" width="80" height="40" as="geometry" />
        </mxCell>
        <mxCell id="gZ1vzj1ZjjKUgdzOVnLU-8" style="edgeStyle=orthogonalEdgeStyle;rounded=0;orthogonalLoop=1;jettySize=auto;html=1;exitX=0.167;exitY=1.001;exitDx=0;exitDy=0;entryX=0;entryY=0.5;entryDx=0;entryDy=0;exitPerimeter=0;" edge="1" source="gZ1vzj1ZjjKUgdzOVnLU-10" target="gZ1vzj1ZjjKUgdzOVnLU-12" parent="1">
          <mxGeometry relative="1" as="geometry">
            <Array as="points">
              <mxPoint x="380" y="440" />
            </Array>
          </mxGeometry>
        </mxCell>
        <mxCell id="gZ1vzj1ZjjKUgdzOVnLU-9" style="edgeStyle=orthogonalEdgeStyle;rounded=0;orthogonalLoop=1;jettySize=auto;html=1;entryX=0;entryY=0.5;entryDx=0;entryDy=0;" edge="1" target="gZ1vzj1ZjjKUgdzOVnLU-11" parent="1">
          <mxGeometry relative="1" as="geometry">
            <mxPoint x="380" y="360" as="sourcePoint" />
            <Array as="points">
              <mxPoint x="380" y="360" />
              <mxPoint x="380" y="390" />
            </Array>
          </mxGeometry>
        </mxCell>
        <mxCell id="gZ1vzj1ZjjKUgdzOVnLU-28" style="edgeStyle=orthogonalEdgeStyle;rounded=0;orthogonalLoop=1;jettySize=auto;html=1;entryX=0;entryY=0.5;entryDx=0;entryDy=0;entryPerimeter=0;" edge="1" parent="1" target="gZ1vzj1ZjjKUgdzOVnLU-29">
          <mxGeometry relative="1" as="geometry">
            <mxPoint x="380" y="360" as="sourcePoint" />
            <mxPoint x="400" y="490" as="targetPoint" />
            <Array as="points">
              <mxPoint x="380" y="490" />
            </Array>
          </mxGeometry>
        </mxCell>
        <mxCell id="gZ1vzj1ZjjKUgdzOVnLU-10" value="Tutor" style="whiteSpace=wrap;html=1;align=center;" vertex="1" parent="1">
          <mxGeometry x="360" y="320" width="120" height="40" as="geometry" />
        </mxCell>
        <mxCell id="gZ1vzj1ZjjKUgdzOVnLU-11" value="id" style="ellipse;whiteSpace=wrap;html=1;align=center;fontStyle=4;" vertex="1" parent="1">
          <mxGeometry x="400" y="370" width="80" height="40" as="geometry" />
        </mxCell>
        <mxCell id="gZ1vzj1ZjjKUgdzOVnLU-12" value="full name" style="ellipse;whiteSpace=wrap;html=1;align=center;" vertex="1" parent="1">
          <mxGeometry x="400" y="420" width="80" height="40" as="geometry" />
        </mxCell>
        <mxCell id="gZ1vzj1ZjjKUgdzOVnLU-13" style="edgeStyle=orthogonalEdgeStyle;rounded=0;orthogonalLoop=1;jettySize=auto;html=1;exitX=0.167;exitY=1.001;exitDx=0;exitDy=0;entryX=0;entryY=0.5;entryDx=0;entryDy=0;exitPerimeter=0;" edge="1" source="gZ1vzj1ZjjKUgdzOVnLU-15" target="gZ1vzj1ZjjKUgdzOVnLU-17" parent="1">
          <mxGeometry relative="1" as="geometry">
            <Array as="points">
              <mxPoint x="1020" y="440" />
            </Array>
          </mxGeometry>
        </mxCell>
        <mxCell id="gZ1vzj1ZjjKUgdzOVnLU-14" style="edgeStyle=orthogonalEdgeStyle;rounded=0;orthogonalLoop=1;jettySize=auto;html=1;entryX=0;entryY=0.5;entryDx=0;entryDy=0;" edge="1" target="gZ1vzj1ZjjKUgdzOVnLU-16" parent="1">
          <mxGeometry relative="1" as="geometry">
            <mxPoint x="1020" y="360" as="sourcePoint" />
            <Array as="points">
              <mxPoint x="1020" y="360" />
              <mxPoint x="1020" y="390" />
            </Array>
          </mxGeometry>
        </mxCell>
        <mxCell id="gZ1vzj1ZjjKUgdzOVnLU-30" style="edgeStyle=orthogonalEdgeStyle;rounded=0;orthogonalLoop=1;jettySize=auto;html=1;entryX=0;entryY=0.5;entryDx=0;entryDy=0;" edge="1" parent="1" target="gZ1vzj1ZjjKUgdzOVnLU-26">
          <mxGeometry relative="1" as="geometry">
            <mxPoint x="1020" y="360" as="sourcePoint" />
            <Array as="points">
              <mxPoint x="1020" y="360" />
              <mxPoint x="1020" y="490" />
            </Array>
          </mxGeometry>
        </mxCell>
        <mxCell id="gZ1vzj1ZjjKUgdzOVnLU-15" value="Student" style="whiteSpace=wrap;html=1;align=center;" vertex="1" parent="1">
          <mxGeometry x="1000" y="320" width="120" height="40" as="geometry" />
        </mxCell>
        <mxCell id="gZ1vzj1ZjjKUgdzOVnLU-16" value="id" style="ellipse;whiteSpace=wrap;html=1;align=center;fontStyle=4;" vertex="1" parent="1">
          <mxGeometry x="1040" y="370" width="80" height="40" as="geometry" />
        </mxCell>
        <mxCell id="gZ1vzj1ZjjKUgdzOVnLU-17" value="full name" style="ellipse;whiteSpace=wrap;html=1;align=center;" vertex="1" parent="1">
          <mxGeometry x="1040" y="420" width="80" height="40" as="geometry" />
        </mxCell>
        <mxCell id="gZ1vzj1ZjjKUgdzOVnLU-18" style="edgeStyle=orthogonalEdgeStyle;rounded=0;orthogonalLoop=1;jettySize=auto;html=1;exitX=0.167;exitY=1.001;exitDx=0;exitDy=0;entryX=0;entryY=0.5;entryDx=0;entryDy=0;exitPerimeter=0;" edge="1" source="gZ1vzj1ZjjKUgdzOVnLU-20" target="gZ1vzj1ZjjKUgdzOVnLU-22" parent="1">
          <mxGeometry relative="1" as="geometry">
            <Array as="points">
              <mxPoint x="700" y="440" />
            </Array>
          </mxGeometry>
        </mxCell>
        <mxCell id="gZ1vzj1ZjjKUgdzOVnLU-19" style="edgeStyle=orthogonalEdgeStyle;rounded=0;orthogonalLoop=1;jettySize=auto;html=1;entryX=0;entryY=0.5;entryDx=0;entryDy=0;" edge="1" target="gZ1vzj1ZjjKUgdzOVnLU-21" parent="1">
          <mxGeometry relative="1" as="geometry">
            <mxPoint x="700" y="360" as="sourcePoint" />
            <Array as="points">
              <mxPoint x="700" y="360" />
              <mxPoint x="700" y="390" />
            </Array>
          </mxGeometry>
        </mxCell>
        <mxCell id="gZ1vzj1ZjjKUgdzOVnLU-32" style="edgeStyle=orthogonalEdgeStyle;rounded=0;orthogonalLoop=1;jettySize=auto;html=1;exitX=0.165;exitY=1.025;exitDx=0;exitDy=0;entryX=0;entryY=0.5;entryDx=0;entryDy=0;exitPerimeter=0;" edge="1" parent="1">
          <mxGeometry relative="1" as="geometry">
            <mxPoint x="699.8" y="360" as="sourcePoint" />
            <mxPoint x="720" y="539" as="targetPoint" />
            <Array as="points">
              <mxPoint x="700" y="539" />
            </Array>
          </mxGeometry>
        </mxCell>
        <mxCell id="gZ1vzj1ZjjKUgdzOVnLU-33" style="edgeStyle=orthogonalEdgeStyle;rounded=0;orthogonalLoop=1;jettySize=auto;html=1;exitX=0.161;exitY=0.996;exitDx=0;exitDy=0;entryX=0;entryY=0.5;entryDx=0;entryDy=0;exitPerimeter=0;" edge="1" parent="1" source="gZ1vzj1ZjjKUgdzOVnLU-20" target="gZ1vzj1ZjjKUgdzOVnLU-27">
          <mxGeometry relative="1" as="geometry">
            <Array as="points">
              <mxPoint x="699" y="490" />
            </Array>
          </mxGeometry>
        </mxCell>
        <mxCell id="gZ1vzj1ZjjKUgdzOVnLU-20" value="Sheet" style="whiteSpace=wrap;html=1;align=center;" vertex="1" parent="1">
          <mxGeometry x="680" y="320" width="120" height="40" as="geometry" />
        </mxCell>
        <mxCell id="gZ1vzj1ZjjKUgdzOVnLU-21" value="id" style="ellipse;whiteSpace=wrap;html=1;align=center;fontStyle=4;" vertex="1" parent="1">
          <mxGeometry x="720" y="370" width="80" height="40" as="geometry" />
        </mxCell>
        <mxCell id="gZ1vzj1ZjjKUgdzOVnLU-22" value="topic" style="ellipse;whiteSpace=wrap;html=1;align=center;" vertex="1" parent="1">
          <mxGeometry x="720" y="420" width="80" height="40" as="geometry" />
        </mxCell>
        <mxCell id="gZ1vzj1ZjjKUgdzOVnLU-23" value="time" style="ellipse;whiteSpace=wrap;html=1;align=center;" vertex="1" parent="1">
          <mxGeometry x="80" y="470" width="80" height="40" as="geometry" />
        </mxCell>
        <mxCell id="gZ1vzj1ZjjKUgdzOVnLU-26" value="term" style="ellipse;whiteSpace=wrap;html=1;align=center;" vertex="1" parent="1">
          <mxGeometry x="1040" y="470" width="80" height="40" as="geometry" />
        </mxCell>
        <mxCell id="gZ1vzj1ZjjKUgdzOVnLU-27" value="semester" style="ellipse;whiteSpace=wrap;html=1;align=center;" vertex="1" parent="1">
          <mxGeometry x="720" y="470" width="80" height="40" as="geometry" />
        </mxCell>
        <mxCell id="gZ1vzj1ZjjKUgdzOVnLU-29" value="mail" style="ellipse;whiteSpace=wrap;html=1;align=center;" vertex="1" parent="1">
          <mxGeometry x="400" y="470" width="80" height="40" as="geometry" />
        </mxCell>
        <mxCell id="gZ1vzj1ZjjKUgdzOVnLU-31" value="course" style="ellipse;whiteSpace=wrap;html=1;align=center;" vertex="1" parent="1">
          <mxGeometry x="720" y="520" width="80" height="40" as="geometry" />
        </mxCell>
        <mxCell id="gZ1vzj1ZjjKUgdzOVnLU-34" value="give" style="shape=rhombus;perimeter=rhombusPerimeter;whiteSpace=wrap;html=1;align=center;" vertex="1" parent="1">
          <mxGeometry x="200" y="320" width="120" height="40" as="geometry" />
        </mxCell>
        <mxCell id="gZ1vzj1ZjjKUgdzOVnLU-37" value="" style="endArrow=none;html=1;rounded=0;exitX=1;exitY=0.5;exitDx=0;exitDy=0;" edge="1" parent="1" source="gZ1vzj1ZjjKUgdzOVnLU-34" target="gZ1vzj1ZjjKUgdzOVnLU-10">
          <mxGeometry relative="1" as="geometry">
            <mxPoint x="330" y="310" as="sourcePoint" />
            <mxPoint x="360" y="340" as="targetPoint" />
          </mxGeometry>
        </mxCell>
        <mxCell id="gZ1vzj1ZjjKUgdzOVnLU-42" value="1" style="edgeLabel;html=1;align=center;verticalAlign=middle;resizable=0;points=[];" vertex="1" connectable="0" parent="gZ1vzj1ZjjKUgdzOVnLU-37">
          <mxGeometry x="0.33" relative="1" as="geometry">
            <mxPoint as="offset" />
          </mxGeometry>
        </mxCell>
        <mxCell id="gZ1vzj1ZjjKUgdzOVnLU-44" value="" style="endArrow=none;html=1;rounded=0;exitX=1;exitY=0.5;exitDx=0;exitDy=0;entryX=0;entryY=0.5;entryDx=0;entryDy=0;" edge="1" parent="1" source="gZ1vzj1ZjjKUgdzOVnLU-2" target="gZ1vzj1ZjjKUgdzOVnLU-34">
          <mxGeometry width="50" height="50" relative="1" as="geometry">
            <mxPoint x="190" y="310" as="sourcePoint" />
            <mxPoint x="240" y="260" as="targetPoint" />
          </mxGeometry>
        </mxCell>
        <mxCell id="gZ1vzj1ZjjKUgdzOVnLU-45" value="N" style="edgeLabel;html=1;align=center;verticalAlign=middle;resizable=0;points=[];" vertex="1" connectable="0" parent="gZ1vzj1ZjjKUgdzOVnLU-44">
          <mxGeometry x="-0.37" relative="1" as="geometry">
            <mxPoint as="offset" />
          </mxGeometry>
        </mxCell>
        <mxCell id="gZ1vzj1ZjjKUgdzOVnLU-46" value="correct" style="shape=rhombus;perimeter=rhombusPerimeter;whiteSpace=wrap;html=1;align=center;" vertex="1" parent="1">
          <mxGeometry x="520" y="320" width="120" height="40" as="geometry" />
        </mxCell>
        <mxCell id="gZ1vzj1ZjjKUgdzOVnLU-47" value="" style="endArrow=none;html=1;rounded=0;exitX=1;exitY=0.5;exitDx=0;exitDy=0;entryX=0;entryY=0.5;entryDx=0;entryDy=0;" edge="1" parent="1" source="gZ1vzj1ZjjKUgdzOVnLU-10" target="gZ1vzj1ZjjKUgdzOVnLU-46">
          <mxGeometry width="50" height="50" relative="1" as="geometry">
            <mxPoint x="470" y="290" as="sourcePoint" />
            <mxPoint x="520" y="240" as="targetPoint" />
          </mxGeometry>
        </mxCell>
        <mxCell id="gZ1vzj1ZjjKUgdzOVnLU-49" value="1" style="edgeLabel;html=1;align=center;verticalAlign=middle;resizable=0;points=[];" vertex="1" connectable="0" parent="gZ1vzj1ZjjKUgdzOVnLU-47">
          <mxGeometry x="-0.3381" relative="1" as="geometry">
            <mxPoint as="offset" />
          </mxGeometry>
        </mxCell>
        <mxCell id="gZ1vzj1ZjjKUgdzOVnLU-48" value="" style="endArrow=none;html=1;rounded=0;exitX=1;exitY=0.5;exitDx=0;exitDy=0;entryX=0;entryY=0.5;entryDx=0;entryDy=0;" edge="1" parent="1" source="gZ1vzj1ZjjKUgdzOVnLU-46" target="gZ1vzj1ZjjKUgdzOVnLU-20">
          <mxGeometry width="50" height="50" relative="1" as="geometry">
            <mxPoint x="490" y="350" as="sourcePoint" />
            <mxPoint x="530" y="350" as="targetPoint" />
          </mxGeometry>
        </mxCell>
        <mxCell id="gZ1vzj1ZjjKUgdzOVnLU-50" value="N" style="edgeLabel;html=1;align=center;verticalAlign=middle;resizable=0;points=[];" vertex="1" connectable="0" parent="gZ1vzj1ZjjKUgdzOVnLU-48">
          <mxGeometry x="0.4" y="1" relative="1" as="geometry">
            <mxPoint y="1" as="offset" />
          </mxGeometry>
        </mxCell>
        <mxCell id="gZ1vzj1ZjjKUgdzOVnLU-51" value="submit" style="shape=rhombus;perimeter=rhombusPerimeter;whiteSpace=wrap;html=1;align=center;" vertex="1" parent="1">
          <mxGeometry x="840" y="320" width="120" height="40" as="geometry" />
        </mxCell>
        <mxCell id="gZ1vzj1ZjjKUgdzOVnLU-52" value="" style="endArrow=none;html=1;rounded=0;exitX=1;exitY=0.5;exitDx=0;exitDy=0;entryX=0;entryY=0.5;entryDx=0;entryDy=0;" edge="1" parent="1" source="gZ1vzj1ZjjKUgdzOVnLU-20" target="gZ1vzj1ZjjKUgdzOVnLU-51">
          <mxGeometry width="50" height="50" relative="1" as="geometry">
            <mxPoint x="780" y="300" as="sourcePoint" />
            <mxPoint x="830" y="250" as="targetPoint" />
          </mxGeometry>
        </mxCell>
        <mxCell id="gZ1vzj1ZjjKUgdzOVnLU-55" value="M" style="edgeLabel;html=1;align=center;verticalAlign=middle;resizable=0;points=[];" vertex="1" connectable="0" parent="gZ1vzj1ZjjKUgdzOVnLU-52">
          <mxGeometry x="-0.35" y="1" relative="1" as="geometry">
            <mxPoint y="1" as="offset" />
          </mxGeometry>
        </mxCell>
        <mxCell id="gZ1vzj1ZjjKUgdzOVnLU-53" value="" style="endArrow=none;html=1;rounded=0;exitX=1;exitY=0.5;exitDx=0;exitDy=0;entryX=0;entryY=0.5;entryDx=0;entryDy=0;" edge="1" parent="1" source="gZ1vzj1ZjjKUgdzOVnLU-51" target="gZ1vzj1ZjjKUgdzOVnLU-15">
          <mxGeometry width="50" height="50" relative="1" as="geometry">
            <mxPoint x="810" y="350" as="sourcePoint" />
            <mxPoint x="850" y="350" as="targetPoint" />
          </mxGeometry>
        </mxCell>
        <mxCell id="gZ1vzj1ZjjKUgdzOVnLU-54" value="N" style="edgeLabel;html=1;align=center;verticalAlign=middle;resizable=0;points=[];" vertex="1" connectable="0" parent="gZ1vzj1ZjjKUgdzOVnLU-53">
          <mxGeometry x="0.3357" y="-1" relative="1" as="geometry">
            <mxPoint y="-1" as="offset" />
          </mxGeometry>
        </mxCell>
        <mxCell id="gZ1vzj1ZjjKUgdzOVnLU-56" style="edgeStyle=orthogonalEdgeStyle;rounded=0;orthogonalLoop=1;jettySize=auto;html=1;exitX=0.167;exitY=1.001;exitDx=0;exitDy=0;entryX=0;entryY=0.5;entryDx=0;entryDy=0;exitPerimeter=0;" edge="1" source="gZ1vzj1ZjjKUgdzOVnLU-59" target="gZ1vzj1ZjjKUgdzOVnLU-61" parent="1">
          <mxGeometry relative="1" as="geometry">
            <Array as="points">
              <mxPoint x="700" y="280" />
            </Array>
          </mxGeometry>
        </mxCell>
        <mxCell id="gZ1vzj1ZjjKUgdzOVnLU-57" style="edgeStyle=orthogonalEdgeStyle;rounded=0;orthogonalLoop=1;jettySize=auto;html=1;entryX=0;entryY=0.5;entryDx=0;entryDy=0;" edge="1" target="gZ1vzj1ZjjKUgdzOVnLU-60" parent="1">
          <mxGeometry relative="1" as="geometry">
            <mxPoint x="700" y="200" as="sourcePoint" />
            <Array as="points">
              <mxPoint x="700" y="200" />
              <mxPoint x="700" y="230" />
            </Array>
          </mxGeometry>
        </mxCell>
        <mxCell id="gZ1vzj1ZjjKUgdzOVnLU-59" value="University" style="whiteSpace=wrap;html=1;align=center;" vertex="1" parent="1">
          <mxGeometry x="680" y="160" width="120" height="40" as="geometry" />
        </mxCell>
        <mxCell id="gZ1vzj1ZjjKUgdzOVnLU-60" value="id" style="ellipse;whiteSpace=wrap;html=1;align=center;fontStyle=4;" vertex="1" parent="1">
          <mxGeometry x="720" y="210" width="80" height="40" as="geometry" />
        </mxCell>
        <mxCell id="gZ1vzj1ZjjKUgdzOVnLU-61" value="name" style="ellipse;whiteSpace=wrap;html=1;align=center;" vertex="1" parent="1">
          <mxGeometry x="720" y="260" width="80" height="40" as="geometry" />
        </mxCell>
        <mxCell id="gZ1vzj1ZjjKUgdzOVnLU-64" value="attends" style="shape=rhombus;perimeter=rhombusPerimeter;whiteSpace=wrap;html=1;align=center;" vertex="1" parent="1">
          <mxGeometry x="840" y="160" width="120" height="40" as="geometry" />
        </mxCell>
        <mxCell id="gZ1vzj1ZjjKUgdzOVnLU-65" value="employs" style="shape=rhombus;perimeter=rhombusPerimeter;whiteSpace=wrap;html=1;align=center;" vertex="1" parent="1">
          <mxGeometry x="520" y="160" width="120" height="40" as="geometry" />
        </mxCell>
        <mxCell id="gZ1vzj1ZjjKUgdzOVnLU-66" value="" style="endArrow=none;html=1;rounded=0;entryX=0;entryY=0.5;entryDx=0;entryDy=0;exitX=0.5;exitY=0;exitDx=0;exitDy=0;edgeStyle=orthogonalEdgeStyle;" edge="1" parent="1" source="gZ1vzj1ZjjKUgdzOVnLU-10" target="gZ1vzj1ZjjKUgdzOVnLU-65">
          <mxGeometry width="50" height="50" relative="1" as="geometry">
            <mxPoint x="400" y="240" as="sourcePoint" />
            <mxPoint x="450" y="190" as="targetPoint" />
          </mxGeometry>
        </mxCell>
        <mxCell id="gZ1vzj1ZjjKUgdzOVnLU-71" value="N" style="edgeLabel;html=1;align=center;verticalAlign=middle;resizable=0;points=[];" vertex="1" connectable="0" parent="gZ1vzj1ZjjKUgdzOVnLU-66">
          <mxGeometry x="-0.8623" relative="1" as="geometry">
            <mxPoint as="offset" />
          </mxGeometry>
        </mxCell>
        <mxCell id="gZ1vzj1ZjjKUgdzOVnLU-67" value="" style="endArrow=none;html=1;rounded=0;entryX=1;entryY=0.5;entryDx=0;entryDy=0;exitX=0.5;exitY=0;exitDx=0;exitDy=0;edgeStyle=orthogonalEdgeStyle;" edge="1" parent="1" source="gZ1vzj1ZjjKUgdzOVnLU-15" target="gZ1vzj1ZjjKUgdzOVnLU-64">
          <mxGeometry width="50" height="50" relative="1" as="geometry">
            <mxPoint x="1040" y="280" as="sourcePoint" />
            <mxPoint x="1140" y="140" as="targetPoint" />
          </mxGeometry>
        </mxCell>
        <mxCell id="gZ1vzj1ZjjKUgdzOVnLU-73" value="N" style="edgeLabel;html=1;align=center;verticalAlign=middle;resizable=0;points=[];" vertex="1" connectable="0" parent="gZ1vzj1ZjjKUgdzOVnLU-67">
          <mxGeometry x="-0.8508" relative="1" as="geometry">
            <mxPoint as="offset" />
          </mxGeometry>
        </mxCell>
        <mxCell id="gZ1vzj1ZjjKUgdzOVnLU-68" value="" style="endArrow=none;html=1;rounded=0;entryX=1;entryY=0.5;entryDx=0;entryDy=0;exitX=0;exitY=0.5;exitDx=0;exitDy=0;" edge="1" parent="1" source="gZ1vzj1ZjjKUgdzOVnLU-59" target="gZ1vzj1ZjjKUgdzOVnLU-65">
          <mxGeometry width="50" height="50" relative="1" as="geometry">
            <mxPoint x="430" y="330" as="sourcePoint" />
            <mxPoint x="530" y="190" as="targetPoint" />
          </mxGeometry>
        </mxCell>
        <mxCell id="gZ1vzj1ZjjKUgdzOVnLU-70" value="1" style="edgeLabel;html=1;align=center;verticalAlign=middle;resizable=0;points=[];" vertex="1" connectable="0" parent="gZ1vzj1ZjjKUgdzOVnLU-68">
          <mxGeometry x="-0.0828" y="1" relative="1" as="geometry">
            <mxPoint as="offset" />
          </mxGeometry>
        </mxCell>
        <mxCell id="gZ1vzj1ZjjKUgdzOVnLU-69" value="" style="endArrow=none;html=1;rounded=0;entryX=1;entryY=0.5;entryDx=0;entryDy=0;exitX=0;exitY=0.5;exitDx=0;exitDy=0;" edge="1" parent="1" source="gZ1vzj1ZjjKUgdzOVnLU-64" target="gZ1vzj1ZjjKUgdzOVnLU-59">
          <mxGeometry width="50" height="50" relative="1" as="geometry">
            <mxPoint x="690" y="190" as="sourcePoint" />
            <mxPoint x="650" y="190" as="targetPoint" />
          </mxGeometry>
        </mxCell>
        <mxCell id="gZ1vzj1ZjjKUgdzOVnLU-72" value="1" style="edgeLabel;html=1;align=center;verticalAlign=middle;resizable=0;points=[];" vertex="1" connectable="0" parent="gZ1vzj1ZjjKUgdzOVnLU-69">
          <mxGeometry x="0.1241" y="1" relative="1" as="geometry">
            <mxPoint as="offset" />
          </mxGeometry>
        </mxCell>
      </root>
    </mxGraphModel>
  </diagram>
</mxfile>
